<svg width="64" height="62" viewBox="0 0 64 62" fill="none" xmlns="http://www.w3.org/2000/svg">
<path d="M58.4112 26.8767C58.4411 26.7222 58.4411 26.5581 58.4212 26.3457C58.3813 25.9305 58.1322 25.5058 57.6737 25.4285C53.9266 24.7431 50.0898 24.8879 46.2331 25.1775C46.2231 25.1389 46.2231 25.1003 46.1932 25.052C44.4093 22.0205 43.0141 18.7863 41.2103 15.7549C40.0244 13.7758 37.9615 10.0492 35.1113 10.223C34.5931 10.2616 34.0848 10.6671 34.1247 11.2077C34.3838 14.4612 39.0278 23.9321 40.2835 25.6699C38.6591 25.7857 37.0446 25.8726 35.4402 25.8726H20.0032C21.5878 23.71 23.0328 21.4413 24.3682 19.1242C25.3349 17.4444 27.8861 13.6406 26.3913 11.6615C26.0724 11.2463 25.5143 11.0339 25.016 11.3332C24.737 11.507 23.7703 11.9897 23.571 12.2118C22.3053 13.6406 21.2898 15.2432 20.2932 16.8555C20.1836 17.01 20.084 17.1644 19.9743 17.3189C19.0575 18.574 14.1444 25.7181 14.0746 25.8726H6.58037C5.95253 25.8726 5.64359 26.336 5.64359 26.8187C5.38448 27.0215 5.24496 27.3497 5.39445 27.7552C7.45735 33.2678 10.0684 38.5584 11.8722 44.1675C12.7392 46.8804 12.9784 49.3519 15.8983 50.5683C19.5059 52.0648 24.6383 51.64 28.4552 51.7365C34.6339 51.9103 40.8227 51.611 46.9815 51.138C47.3702 51.109 48.3867 50.5008 48.576 50.1629C52.662 43.0766 54.5455 35.0828 58.5418 27.9579C58.7789 27.5428 58.6703 27.147 58.4112 26.8767ZM14.3018 44.4958C14.2022 44.4958 14.1125 44.5344 14.0228 44.5537C13.5833 43.1056 13.1458 41.6574 12.6276 40.2286C11.7307 37.7088 10.6643 35.2566 9.60796 32.7948C10.6245 32.7948 11.631 32.7948 12.6375 32.8044C12.6276 32.9299 12.6375 33.0747 12.6973 33.2292C13.3551 34.938 13.7338 36.7048 14.1523 38.4811C14.6407 40.5858 15.6073 42.478 16.2551 44.5247C15.6083 44.5161 14.9606 44.5054 14.3018 44.4958ZM18.1795 44.574C18.2293 44.4099 18.2493 44.2361 18.1895 44.0333C17.6214 42.2183 16.7644 40.5288 16.2561 38.6945C15.708 36.725 15.3692 34.7266 14.6516 32.8054C15.8575 32.8054 17.0534 32.815 18.2493 32.815C18.1496 33.0467 18.1396 33.3267 18.2891 33.6163C19.9833 37.005 20.1029 40.8088 20.6311 44.4774C20.641 44.545 20.6809 44.5933 20.7008 44.6609C19.8637 44.6309 19.0156 44.5933 18.1795 44.574ZM22.6043 44.7275C22.6242 44.6406 22.6441 44.5537 22.6242 44.4475C22.0562 40.4892 21.8569 36.4827 20.083 32.8141H24.4878C24.7071 34.7546 25.0758 36.6758 25.3449 38.6163C25.6438 40.6823 25.584 42.7773 25.8631 44.853C24.7768 44.8153 23.6896 44.7661 22.6043 44.7275ZM27.8562 44.9302C27.8562 44.9013 27.8662 44.882 27.8562 44.8433C27.5772 42.758 27.5772 40.6727 27.338 38.5873C27.1287 36.6468 26.7002 34.7353 26.481 32.8044C27.6868 32.7948 28.8927 32.7754 30.0985 32.7658C30.0786 36.811 29.8195 40.8465 30.1882 44.882C30.1882 44.9302 30.2181 44.9592 30.2281 45.0075C29.4308 44.9882 28.6435 44.9592 27.8562 44.9302ZM35.9982 32.7281C35.9384 36.7057 34.3838 44.9215 34.4835 45.0953C33.7061 45.0857 32.9288 45.076 32.1515 45.0567C32.1614 44.9891 32.1814 44.9312 32.1814 44.8443C31.8126 40.8185 32.0717 36.7926 32.0917 32.7571C33.3972 32.7378 34.7027 32.7185 36.0082 32.6895C36.0072 32.7088 35.9982 32.7175 35.9982 32.7281ZM36.2265 45.104C36.2564 45.0557 36.2863 45.0075 36.2962 44.9399C37.0536 40.8754 37.9306 36.8496 37.9904 32.6982C37.9904 32.6789 37.9804 32.6693 37.9804 32.6596C39.2162 32.6306 40.442 32.6017 41.6777 32.5631C41.6678 32.621 41.6478 32.6693 41.6478 32.7272C41.6877 36.8592 39.0667 44.9302 39.1664 45.0654C38.1907 45.0953 37.2031 45.104 36.2265 45.104ZM40.8516 45.0075C40.9313 44.8723 43.6818 36.8496 43.642 32.6982C43.642 32.621 43.6121 32.5631 43.5921 32.4955C44.9973 32.4569 46.3925 32.3893 47.7877 32.3314C47.5087 36.4731 45.7148 40.8754 44.3595 44.7951C43.1935 44.882 42.0176 44.9592 40.8516 45.0075ZM48.3149 44.3799C47.717 44.4572 47.119 44.5344 46.531 44.5923C47.9063 40.663 49.5008 36.4151 49.7799 32.2927C49.7799 32.2734 49.7699 32.2638 49.7699 32.2348C51.3146 32.1576 52.8493 32.0803 54.394 31.9741C52.5414 36.1834 48.7135 44.322 48.3149 44.3799Z" fill="#3D3D3D"/>
</svg>
