<svg width="35" height="35" viewBox="0 0 35 35" fill="none" xmlns="http://www.w3.org/2000/svg">
<path d="M34.5589 32.4787L24.5169 22.4296C26.4966 20.0553 27.6873 17.0212 27.6873 13.7073C27.6873 6.14715 21.4827 0 13.8508 0C6.21888 0 0 6.15432 0 13.7145C0 21.2747 6.20453 27.4219 13.8365 27.4219C17.0786 27.4219 20.0625 26.3101 22.4296 24.4523L32.5074 34.5302C33.0956 35.1184 33.9707 35.1184 34.5589 34.5302C35.147 33.942 35.147 33.0669 34.5589 32.4787ZM2.94088 13.7145C2.94088 7.77539 7.83277 2.94805 13.8365 2.94805C19.8401 2.94805 24.732 7.77539 24.732 13.7145C24.732 19.6537 19.8401 24.481 13.8365 24.481C7.83277 24.481 2.94088 19.6465 2.94088 13.7145Z" fill="#3D3D3D"/>
</svg>
